<?xml version="1.0" encoding="utf-8"?>
<!-- Generator: Adobe Illustrator 20.1.0, SVG Export Plug-In . SVG Version: 6.00 Build 0)  -->
<svg version="1.1" id="Layer_1" xmlns="http://www.w3.org/2000/svg" xmlns:xlink="http://www.w3.org/1999/xlink" x="0px" y="0px"
	 viewBox="0 0 41.6 16" style="enable-background:new 0 0 41.6 16;" xml:space="preserve">
<style type="text/css">
	.st0{fill:#444444;}
	.st1{fill:none;}
	.st2{font-family:'Cabin-Regular';}
	.st3{font-size:10px;}
</style>
<path class="st0" d="M2.1,3.1C2.3,4.4,2.5,4.7,2.5,6C2.5,6.8,1,7.5,1,7.5v1c0,0,1.5,0.7,1.5,1.5c0,1.3-0.2,1.6-0.4,2.9
	C1.8,15,2.9,16,3.9,16S6,16,6,16v-2c0,0-1.8,0.2-1.8-1c0-0.9,0.2-0.9,0.4-2.9C4.7,9.2,4.1,8.5,3.5,8c0.6-0.5,1.2-1.1,1.1-2
	C4.3,4,4.2,4,4.2,3.1C4.2,1.9,6,2,6,2V0c0,0-1,0-2.1,0S1.8,1,2.1,3.1z"/>
<path class="st0" d="M39.5,3.1c-0.2,1.3-0.4,1.6-0.4,2.9c0,0.8,1.5,1.5,1.5,1.5v1c0,0-1.5,0.7-1.5,1.5c0,1.3,0.2,1.6,0.4,2.9
	c0.3,2.1-0.8,3.1-1.8,3.1s-2.1,0-2.1,0v-2c0,0,1.8,0.2,1.8-1c0-0.9-0.2-0.9-0.4-2.9c-0.1-0.9,0.5-1.6,1.1-2.1
	c-0.6-0.5-1.2-1.1-1.1-2c0.2-2,0.4-2,0.4-2.9c0-1.2-1.8-1.1-1.8-1.1V0c0,0,1,0,2.1,0C38.8,0,39.8,1,39.5,3.1z"/>
<rect x="6" y="4.1" class="st1" width="29.6" height="8"/>
<text transform="matrix(1 0 0 1 9.333 11.625)" class="st2 st3">liquid</text>
</svg>
